PathFileType	4	(X/Y/Z)	C:\Users\WrightLab\Desktop\Jo\P4V116.trc
DataRate	CameraRate	NumFrames	NumMarkers	Units	OrigDataRate	OrigDataStartFrame	OrigNumFrames
100.00	100.00	       14	19	mm	100.00	329	       525
Frame#	Time	Headset_Front			Headset_Back			Headset_Left			Headset_Right			Left_Shoulder			Right_Shoulder			Sternum			C7			Left Elbow			Right Elbow			Left Wrist			Right Wrist			Left ASIS			Right ASIS			S2			Left Knee			Right Knee			Left Ankle			Right Ankle			
		X1	Y1	Z1	X2	Y2	Z2	X3	Y3	Z3	X4	Y4	Z4	X5	Y5	Z5	X6	Y6	Z6	X7	Y7	Z7	X8	Y8	Z8	X9	Y9	Z9	X10	Y10	Z10	X11	Y11	Z11	X12	Y12	Z12	X13	Y13	Z13	X14	Y14	Z14	X15	Y15	Z15	X16	Y16	Z16	X17	Y17	Z17	X18	Y18	Z18	X19	Y19	Z19	

329	3.280	-30.93620	1632.03088	1320.77722										217.35075	1568.92029	1422.72058	-74.51233	1558.16125	1323.94519	49.75616	1503.19006	1480.15405				371.39194	1227.75439	1452.09436	-200.98485	1205.99915	1298.59705	340.08890	952.17310	1603.02148	-226.60226	997.78772	1513.03406	211.56989	1078.05334	1520.44629	-109.34016	1067.24963	1430.86938	127.66263	1084.98840	1301.67517	208.01939	628.29059	1666.61475	-52.08020	583.36713	1460.27698	244.82909	167.93845	1433.14185	62.17618	92.74395	1379.23560	
330	3.290	-31.91921	1632.18726	1329.62927										215.78151	1569.06177	1433.51489	-75.00688	1558.49939	1331.41467	47.60275	1503.15259	1489.53772				369.78970	1227.36182	1463.14526	-200.06615	1205.12476	1306.83301	337.77063	952.42859	1613.04358	-227.97188	1000.78851	1523.78589	208.84778	1079.04480	1531.87646	-112.73160	1068.92651	1440.27100	127.53246	1085.60254	1311.42517	200.73737	631.31219	1682.37585	-52.61977	582.95264	1463.45190	241.27565	159.77104	1468.95459	61.98204	93.05283	1379.20581	
331	3.300	23.78662	1706.90344	1613.29358										214.41435	1568.88477	1444.00037	-75.69244	1558.49597	1338.94080	45.29141	1503.53284	1499.13318				368.31259	1227.20129	1474.50879	-201.68401	1205.76514	1315.08704	335.33746	951.80463	1624.50781	-228.88321	1002.49988	1533.54993	205.52068	1079.69043	1543.84180	-113.82765	1067.37085	1444.94641	127.13347	1085.59412	1320.17322	194.06512	632.69067	1695.35327	-53.46571	582.75830	1466.80701	237.58545	152.76161	1505.92664	62.22346	93.06574	1379.48035	
332	3.310	22.70350	1706.17261	1623.06323										213.22574	1568.60742	1453.89832	-75.41785	1558.28625	1346.45789	43.33058	1503.43225	1508.00317				366.50677	1227.05676	1484.97070	-200.95256	1204.79822	1323.43896	333.01523	951.73621	1635.09155	-230.12039	1005.11658	1544.65857	202.99042	1079.57935	1553.56445	-116.38758	1068.47473	1454.71387	127.18308	1086.12280	1329.98816	187.91847	635.06006	1709.58118	-54.24371	582.22302	1470.45447	232.91811	144.99112	1542.86304	62.26323	93.11254	1379.48950	
333	3.320	21.25762	1705.80103	1631.52087										211.50702	1567.80249	1464.07312	-76.49079	1557.56653	1352.17529	41.62836	1503.69714	1516.45007				364.79807	1226.73303	1497.08362	-201.21574	1204.24536	1331.75183	331.06412	949.92920	1643.93286	-230.93106	1006.95758	1554.25391	199.41287	1079.54187	1564.84338	-118.11777	1068.52979	1462.44885	126.78391	1085.99219	1341.95508	182.05107	634.99988	1720.93054	-55.35616	581.99225	1474.14807	228.30103	139.49785	1579.52515	62.26145	93.11893	1379.51208	
334	3.330	20.27444	1704.52759	1639.82300										210.28958	1567.85217	1474.41492	-76.37746	1557.07861	1360.14502	39.56970	1503.17175	1525.42554				363.35880	1226.14331	1508.41687	-201.49911	1203.98145	1340.06360	328.36572	950.00757	1655.18127	-232.33586	1008.36481	1564.22778	196.37230	1079.76099	1575.87427	-120.27470	1068.04639	1469.40222	125.62814	1084.99133	1351.12549	177.35091	635.36725	1733.55103	-56.73089	581.41638	1478.19934	222.88332	134.06195	1616.42493	62.09962	93.41331	1379.41223	
335	3.340	18.87733	1704.33984	1650.46948										208.87886	1566.88464	1485.72742	-76.88778	1556.82886	1368.44714	37.57928	1502.97217	1534.56348				362.42032	1226.17053	1519.94849	-201.60031	1203.45642	1348.52234	326.18356	948.95367	1666.47290	-233.18240	1010.14185	1574.87610	193.08904	1079.37048	1587.32935	-122.24137	1067.91443	1477.97180	125.00626	1085.32703	1360.42383	171.27441	635.51703	1744.70361	-57.80732	580.69104	1482.37341	216.91180	129.05528	1654.58154	62.33018	93.20518	1379.59119	
336	3.350	17.15491	1703.07007	1659.53296										207.51958	1565.98267	1494.22339	-77.35195	1555.70410	1375.30786	35.93031	1502.19458	1542.55615				360.31226	1224.86340	1530.74048	-201.69885	1202.69727	1356.98914	324.60449	947.53143	1675.75037	-234.65138	1011.58160	1585.00586	189.89690	1079.00549	1597.55042	-124.30811	1067.20911	1485.86218	124.56047	1085.14856	1373.86145	166.93475	636.40973	1757.22241	-59.35712	580.11481	1486.97156	210.37790	125.23675	1689.62244	62.17116	93.55488	1379.49805	
337	3.360	15.66615	1702.19824	1668.23792										206.79538	1565.62390	1505.67566	-77.45719	1555.45190	1384.05371	34.31853	1501.82715	1551.92981				358.61194	1224.15015	1542.61353	-202.04137	1202.07202	1365.41040	322.27011	946.62445	1686.81714	-235.38248	1012.03882	1593.12146	186.50281	1077.93689	1608.67554	-126.53716	1066.52051	1493.66199	122.97273	1083.96838	1382.40393	161.83121	636.48730	1768.75195	-60.44471	579.04785	1492.01099	203.01631	123.21101	1724.59705	62.20692	93.65067	1379.55542	
338	3.370	14.74083	1701.26624	1678.07813										205.17427	1564.61340	1515.69226	-78.01422	1554.68420	1392.29053	32.06662	1500.20105	1561.26648				357.34961	1223.09131	1554.07739	-202.16962	1201.31055	1373.92517	320.18692	945.85797	1698.86841	-236.77104	1013.82935	1604.43420	183.75943	1077.30188	1620.32214	-128.55634	1065.55542	1502.50537	122.35203	1083.36536	1392.18494	157.81128	636.09088	1780.18884	-61.92412	578.27960	1497.21899	195.48485	121.24860	1759.55859	62.29295	93.79792	1379.60303	
339	3.380	13.46757	1699.22278	1687.53674										204.12537	1563.73975	1526.80981	-78.18196	1552.93433	1399.93359	30.75887	1499.76050	1570.96631				355.90521	1222.29504	1565.84705	-202.48416	1200.35974	1382.37292	318.52551	944.14453	1709.22791	-237.86047	1014.06561	1613.47290	180.61288	1075.91736	1629.71997	-130.60262	1064.76636	1510.14490	120.51646	1081.25061	1403.79761	153.69620	635.39850	1791.41980	-62.83643	577.58325	1502.10950	187.84865	120.78297	1792.01379	62.23480	94.19672	1379.99963	
340	3.390	11.59131	1698.15955	1696.24817										202.62309	1561.77917	1536.70422	-78.63752	1551.65479	1408.92590	29.14443	1498.25891	1580.08679				354.66614	1221.57617	1577.12622	-202.98866	1199.17188	1390.73718	316.53201	942.56885	1719.77905	-239.52454	1014.86511	1623.85303	177.51085	1074.67944	1641.76794	-132.70160	1063.63416	1518.82227				149.88545	633.27350	1800.22302	-64.07869	576.55042	1507.58435	178.15805	120.52775	1826.31836	62.25624	94.65631	1380.44324	
341	3.400	10.46802	1696.79224	1706.04468	117.48538	1079.20422	1426.88135							201.21365	1561.15845	1546.65344	-78.83592	1550.72839	1417.04114	27.20296	1497.84241	1589.14563				353.52576	1220.20886	1588.80701	-203.29521	1197.77747	1399.30151	314.86285	940.76251	1730.02405	-240.42326	1015.15295	1633.49304	174.80894	1073.75049	1652.35767	-134.88118	1062.48022	1527.68604				147.04874	633.40668	1813.10352	-66.01610	575.00092	1514.80774	168.69830	121.20244	1857.78076	62.58160	95.08967	1381.02893	
342	3.410	8.59627	1695.59814	1717.25220										200.13843	1558.89551	1556.96814	-79.63699	1550.07532	1426.26221	25.70878	1496.94287	1599.04504				352.03436	1218.70569	1599.92395	-204.07816	1196.42444	1407.73743	313.57184	939.20886	1740.50879	-241.92136	1014.28076	1642.26428	171.63538	1071.73853	1663.03174	-137.25839	1061.32703	1537.16211				143.69066	630.16602	1820.70435	-67.17630	573.31073	1521.48730	158.93735	122.32880	1888.77600	63.03456	95.38622	1381.17944	
